<?xml version="1.0" standalone="no"?>
<!DOCTYPE svg PUBLIC "-//W3C//DTD SVG 20010904//EN"
 "http://www.w3.org/TR/2001/REC-SVG-20010904/DTD/svg10.dtd">
<svg version="1.0" xmlns="http://www.w3.org/2000/svg"
 width="512.000000pt" height="512.000000pt" viewBox="0 0 512.000000 512.000000"
 preserveAspectRatio="xMidYMid meet">
<metadata>
Created by potrace 1.14, written by Peter Selinger 2001-2017
</metadata>
<g transform="translate(0.000000,512.000000) scale(0.100000,-0.100000)"
fill="#000000" stroke="none">
<path d="M4079 5063 c-9 -16 -14 -41 -12 -58 2 -16 4 -36 5 -42 1 -7 5 -13 9
-13 8 0 5 -118 -3 -150 -27 -105 -150 -213 -268 -235 -43 -8 -240 -12 -240 -5
0 3 -15 5 -32 6 -45 0 -188 13 -218 18 -24 5 -53 8 -167 21 -27 3 -73 10 -103
15 -30 5 -73 12 -94 15 -22 3 -89 17 -150 31 -61 14 -118 27 -126 29 -8 2 -58
13 -110 25 -96 23 -154 36 -200 46 -14 3 -41 9 -60 14 -19 5 -48 12 -65 15
-39 8 -60 13 -60 15 0 1 -9 3 -20 4 -11 2 -33 6 -50 10 -16 3 -40 9 -52 11
-13 3 -33 7 -45 11 -13 3 -32 7 -43 9 -11 3 -31 7 -45 11 -14 3 -34 7 -45 8
-11 2 -20 4 -20 5 0 2 -9 4 -20 6 -11 2 -36 7 -55 11 -19 3 -48 8 -65 11 -41
7 -60 11 -60 13 0 2 -36 8 -85 14 -19 3 -35 5 -35 7 0 2 -14 4 -175 24 -116
15 -430 26 -430 15 0 -3 -21 -6 -48 -7 -77 -4 -112 -7 -112 -13 0 -3 -12 -6
-28 -7 -25 -3 -61 -9 -72 -13 -3 -1 -8 -2 -12 -1 -5 0 -8 -4 -8 -10 0 -5 -4
-8 -8 -5 -5 3 -48 -15 -97 -39 -48 -24 -92 -42 -96 -39 -5 3 -9 0 -9 -5 0 -6
-7 -11 -15 -11 -22 0 -135 -49 -152 -66 -8 -8 -20 -14 -27 -14 -17 0 -147
-130 -140 -141 3 -5 1 -9 -5 -9 -9 0 -19 -18 -52 -95 -27 -65 -38 -177 -24
-250 24 -122 116 -214 290 -291 22 -10 42 -19 44 -21 2 -1 -15 -23 -38 -48
-40 -44 -67 -93 -77 -139 -11 -50 -2 -225 12 -248 3 -5 8 -23 11 -40 3 -17 10
-43 15 -57 6 -14 11 -29 10 -33 -1 -5 3 -8 9 -8 5 0 8 -3 6 -7 -2 -5 4 -21 14
-38 10 -16 26 -44 35 -62 19 -39 144 -173 160 -173 7 0 14 -6 17 -13 8 -21
167 -94 242 -111 56 -13 112 -15 285 -11 118 2 231 6 250 9 19 2 60 7 90 10
124 13 166 18 189 21 50 8 189 20 236 20 43 0 50 -3 51 -20 1 -11 2 -29 3 -40
2 -31 46 -76 88 -90 35 -12 57 -13 93 -4 12 3 14 -6 12 -46 -6 -82 23 -132 91
-159 88 -35 186 37 194 144 3 40 10 97 18 155 4 22 7 54 8 70 l3 30 64 0 c71
0 69 4 54 -71 -13 -68 54 -150 127 -156 l26 -2 -14 -51 c-7 -28 -11 -67 -7
-88 17 -109 156 -154 233 -75 30 31 46 72 109 288 9 30 17 56 18 58 4 6 124
-31 130 -39 3 -5 -1 -19 -8 -31 -7 -13 -13 -25 -13 -28 -1 -3 -6 -16 -12 -30
-11 -28 -11 -62 1 -100 10 -29 63 -80 84 -80 11 0 10 -8 -6 -34 -31 -52 -34
-92 -10 -142 11 -24 28 -46 39 -49 10 -4 19 -11 19 -16 0 -6 4 -8 9 -4 5 3 12
1 15 -3 9 -14 78 -7 112 11 22 11 56 54 108 137 42 67 76 125 76 131 0 5 7 12
15 15 8 4 12 10 9 15 -13 22 47 -8 107 -53 20 -16 40 -28 43 -28 8 0 140 -131
176 -175 14 -16 41 -52 60 -80 18 -27 38 -53 44 -57 6 -4 8 -8 3 -8 -4 0 6
-19 23 -41 16 -23 27 -45 24 -50 -3 -5 -1 -9 5 -9 5 0 18 -19 29 -42 58 -127
101 -225 102 -233 0 -10 5 -26 13 -45 24 -58 41 -159 42 -255 2 -123 -12 -207
-51 -305 -29 -73 -103 -213 -116 -218 -4 -2 -8 -12 -8 -23 0 -10 -5 -19 -10
-19 -6 0 -14 -8 -17 -17 -7 -18 -26 -43 -55 -75 -10 -10 -16 -18 -13 -18 5 0
-73 -87 -141 -154 -56 -57 -125 -140 -126 -153 0 -4 -5 -19 -11 -33 -21 -53
-29 -162 -14 -200 32 -83 49 -102 114 -130 56 -25 106 -17 200 30 83 43 116
49 139 26 11 -12 40 -104 57 -182 2 -6 11 -23 20 -37 10 -15 15 -27 12 -27 -3
0 12 -15 32 -33 111 -98 251 -61 339 88 20 34 94 261 109 335 2 8 11 44 20 80
18 70 23 91 31 130 3 14 8 34 11 45 4 11 8 22 8 25 5 18 19 86 20 92 0 3 3 9
7 13 4 4 4 13 1 21 -3 8 -1 14 3 14 5 0 10 12 11 27 3 42 8 67 15 78 3 6 9 26
12 45 3 19 8 46 11 60 3 14 8 36 11 50 6 27 8 33 17 70 4 14 9 37 12 53 3 15
7 39 10 55 3 15 8 38 12 52 3 14 7 32 8 40 3 15 10 55 20 100 3 14 7 41 9 60
3 19 12 58 22 85 9 28 17 57 18 65 1 8 7 33 14 55 11 39 17 66 28 134 3 18 8
43 10 55 30 143 22 453 -15 617 -19 86 -63 214 -101 294 -20 44 -43 95 -51
113 -8 17 -16 32 -19 32 -4 0 -17 22 -31 50 -13 27 -27 50 -31 50 -5 0 -8 7
-8 15 0 8 -4 15 -10 15 -5 0 -10 5 -10 10 0 16 -92 149 -167 243 -82 103 -254
274 -358 357 -44 36 -82 67 -85 70 -3 3 -17 11 -32 19 -15 8 -37 23 -48 33
-11 10 -20 15 -20 11 0 -4 -4 -3 -8 2 -9 13 -107 76 -152 98 -19 10 -51 27
-70 39 -19 11 -36 20 -37 20 -1 -1 -49 21 -105 47 -144 67 -351 135 -508 165
-78 16 -148 27 -195 32 -27 3 -51 8 -53 12 -1 4 -17 7 -35 6 -17 -1 -54 2 -82
7 -27 5 -68 11 -90 12 -22 2 -46 6 -53 11 -7 4 -12 2 -12 -4 0 -6 -4 -9 -8 -6
-10 6 -102 15 -197 21 -38 2 -70 4 -70 5 0 1 -54 2 -120 3 -66 2 -126 6 -132
10 -7 5 -13 5 -13 0 0 -12 -104 -10 -112 2 -5 7 -8 7 -8 0 0 -6 -23 -11 -52
-11 -63 -1 -273 -12 -343 -19 -84 -8 -152 -16 -171 -19 -11 -2 -40 -6 -65 -10
-147 -21 -320 -63 -486 -118 l-152 -50 -51 16 c-228 75 -307 292 -161 446 55
56 73 67 143 80 153 30 349 31 613 5 17 -1 66 -6 110 -10 44 -4 83 -9 86 -10
3 -2 36 -7 75 -10 38 -3 78 -8 89 -9 11 -2 45 -7 75 -11 30 -3 62 -9 70 -12 8
-3 37 -7 65 -9 27 -3 61 -7 75 -9 14 -3 43 -8 65 -11 22 -3 81 -12 130 -20 50
-8 112 -17 139 -20 28 -3 54 -8 58 -10 8 -5 95 -16 136 -17 6 0 12 -3 12 -7 0
-3 10 -6 23 -6 20 -1 69 -7 152 -21 17 -3 40 -6 53 -6 12 -1 22 -4 22 -7 0 -3
10 -6 23 -7 30 -1 147 -18 195 -29 52 -11 77 -15 97 -17 11 -1 22 -5 25 -9 3
-3 21 -9 40 -11 19 -3 36 -6 38 -7 1 -2 5 -3 10 -4 62 -14 89 -19 100 -17 6 1
12 -2 12 -6 0 -4 10 -9 23 -10 12 -1 38 -4 57 -8 19 -3 44 -7 55 -8 11 -1 22
-5 25 -8 3 -4 25 -10 50 -13 25 -4 61 -9 80 -13 19 -3 46 -6 60 -7 14 -1 27
-4 30 -7 3 -4 25 -9 50 -13 25 -3 59 -7 75 -10 242 -33 418 -27 528 19 55 23
181 152 176 181 0 4 3 10 8 13 15 11 46 111 49 159 1 26 3 49 4 52 1 3 2 8 1
12 0 4 -3 27 -5 51 -6 52 -24 96 -50 120 -49 44 -116 9 -110 -57 3 -30 11 -85
15 -103 5 -17 -24 -133 -32 -133 -5 0 -9 -7 -9 -15 0 -40 -143 -155 -192 -155
-8 0 -18 -3 -22 -7 -8 -9 -136 -16 -136 -8 0 3 16 13 35 21 61 25 133 101 181
191 49 89 55 279 13 367 -34 69 -102 89 -130 39z m-3794 -552 c-1 -11 -4 -23
-7 -27 -4 -3 -3 -16 2 -28 4 -13 5 -28 1 -35 -19 -30 90 -241 124 -241 6 0 24
-13 41 -30 18 -16 44 -32 58 -36 14 -3 26 -10 26 -15 0 -5 8 -9 18 -9 15 -1
14 -2 -3 -12 -23 -14 -55 -18 -55 -7 0 4 -8 6 -17 4 -22 -3 -123 34 -141 52
-7 7 -18 13 -24 13 -16 0 -66 60 -92 110 -28 54 -29 119 -2 198 4 12 12 22 17
22 5 0 8 4 7 8 -4 12 34 62 42 57 4 -2 6 -13 5 -24z"/>
</g>
</svg>
